<?xml version="1.0" encoding="UTF-8"?>
<svg version="1.1" xmlns="http://www.w3.org/2000/svg" width="512" height="512">
<path d="M0 0 C51.71136364 0 51.71136364 0 62 9 C69.25641646 16.4025188 72.19061587 25.33219798 72.5 35.5625 C72.15866073 46.78118405 67.87994804 55.12005196 60 63 C60.50789063 63.37769531 61.01578125 63.75539063 61.5390625 64.14453125 C69.5641713 70.56161263 73.74539031 77.86102123 75.5 88 C76.76863417 99.98009171 73.69422338 110.21440266 66.3125 119.75 C60.68956181 125.880162 53.86979029 128.75148849 46 131 C30.82 131 15.64 131 0 131 C0 87.77 0 44.54 0 0 Z M13 14 C13 28.19 13 42.38 13 57 C20.26 57 27.52 57 35 57 C35 55.02 35 53.04 35 51 C36.65 51 38.3 51 40 51 C40 52.98 40 54.96 40 57 C40.66 57 41.32 57 42 57 C42.33 49.74 42.66 42.48 43 35 C44.32 34.67 45.64 34.34 47 34 C47 40.93 47 47.86 47 55 C53.49966253 50.66689165 57.230358 47.66844866 59 40 C59.63989914 33.96025021 59.23008936 28.26226479 56 23 C52.02913174 18.6337639 48.5164116 16.20656464 43 14 C39.37 14 35.74 14 32 14 C32.33 23.24 32.66 32.48 33 42 C31.02 42 29.04 42 27 42 C27 32.76 27 23.52 27 14 C26.34 14 25.68 14 25 14 C25 19.94 25 25.88 25 32 C23.35 32 21.7 32 20 32 C20 26.06 20 20.12 20 14 C17.69 14 15.38 14 13 14 Z M29.30859375 70.21875 C28.45837646 70.25935547 27.60815918 70.29996094 26.73217773 70.34179688 C25.64493408 70.39400391 24.55769043 70.44621094 23.4375 70.5 C19.993125 70.665 16.54875 70.83 13 71 C13 84.2 13 97.4 13 111 C14.65 111 16.3 111 18 111 C18 113.31 18 115.62 18 118 C18.66 118 19.32 118 20 118 C20 106.78 20 95.56 20 84 C21.65 84 23.3 84 25 84 C25 95.22 25 106.44 25 118 C25.66 118 26.32 118 27 118 C27.33 104.14 27.66 90.28 28 76 C29.32 75.67 30.64 75.34 32 75 C32.33 89.19 32.66 103.38 33 118 C33.66 118 34.32 118 35 118 C35 102.16 35 86.32 35 70 C33.10147764 70 31.20448987 70.12792863 29.30859375 70.21875 Z M40 71 C40 86.51 40 102.02 40 118 C40.99 117.505 40.99 117.505 42 117 C42 101.82 42 86.64 42 71 C41.34 71 40.68 71 40 71 Z M47 72 C47 86.52 47 101.04 47 116 C47.66 116 48.32 116 49 116 C49 111.71 49 107.42 49 103 C50.65 103.33 52.3 103.66 54 104 C54.33 106.31 54.66 108.62 55 111 C59.75232553 107.06704094 61.54159979 102.33336673 62.359375 96.38671875 C62.72036906 89.29719659 61.20980476 83.75708384 57 78 C52.62830023 73.65734225 52.62830023 73.65734225 47 72 Z " fill="#010101" transform="translate(199,194)"/>
<path d="M0 0 C7.70053641 -0.07676573 15.40097228 -0.12889694 23.10180664 -0.16479492 C25.71545092 -0.1797779 28.32907052 -0.20017128 30.94262695 -0.22631836 C65.90705189 -0.56707618 65.90705189 -0.56707618 79.1875 6.5 C80.17447876 7.01276489 80.17447876 7.01276489 81.18139648 7.53588867 C97.68705128 16.55807287 106.42006421 31.26019263 112.25 48.75 C116.35656755 67.78236116 113.22364841 87.14771591 102.70703125 103.6015625 C92.61650629 117.77909643 79.54805446 126.55677399 62.68635559 130.54759216 C59.71650951 131.04774249 56.93634623 131.11986599 53.92456055 131.11352539 C52.72369308 131.11344986 51.52282562 131.11337433 50.28556824 131.11329651 C48.99894791 131.10813522 47.71232758 131.10297394 46.38671875 131.09765625 C45.04865064 131.09578956 43.71058185 131.09436684 42.37251282 131.09336853 C38.8626413 131.08956314 35.35281161 131.07974988 31.84295654 131.06866455 C28.25663824 131.05840777 24.67031314 131.05386179 21.08398438 131.04882812 C14.05597247 131.03812572 7.02798825 131.02107321 0 131 C0.41019379 130.52727158 0.82038757 130.05454315 1.24301147 129.56748962 C1.78205109 128.94314529 2.3210907 128.31880096 2.87646484 127.67553711 C3.41040863 127.05843369 3.94435242 126.44133026 4.49447632 125.80552673 C9.68258191 119.58359648 13.55766803 112.29774377 17 105 C17.66 105 18.32 105 19 105 C19 109.29 19 113.58 19 118 C23.94415379 117.9056137 28.88786608 117.79934422 33.83154297 117.68261719 C35.50920846 117.64461286 37.18694754 117.60971328 38.86474609 117.578125 C57.32144203 117.2263595 71.89353018 115.26298627 85.90625 102.2265625 C93.2428845 94.60032401 96.4769286 85.09228559 99 75 C86.13 74.505 86.13 74.505 73 74 C73 75.32 73 76.64 73 78 C71.35 78 69.7 78 68 78 C67.67 83.61 67.34 89.22 67 95 C65.35 95 63.7 95 62 95 C61.7368932 91.79324529 61.5783196 88.58926334 61.4375 85.375 C61.32438477 84.01955078 61.32438477 84.01955078 61.20898438 82.63671875 C61.08331427 78.81076229 61.13425973 76.12891079 63.51391602 73.02587891 C70.2590947 67.67185868 77.84313514 68.30902639 86.0625 68.625 C87.41856008 68.65515989 88.77468534 68.68252503 90.13085938 68.70703125 C93.42226328 68.77731034 96.71026897 68.87566672 100 69 C98.68500675 51.51255244 95.40219286 37.66541708 82.1875 25.25 C72.75139628 17.38353829 62.27706993 14.7483239 50.25 14.5859375 C48.90192261 14.55688828 48.90192261 14.55688828 47.52661133 14.5272522 C44.68450104 14.46795392 41.84234915 14.42127192 39 14.375 C37.06118124 14.33677433 35.12237862 14.29772 33.18359375 14.2578125 C28.4558619 14.1622939 23.72805068 14.0780814 19 14 C19 17.63 19 21.26 19 25 C14.39505605 22.7334418 12.57545932 20.16951946 10.0625 15.75 C7.79556537 11.85370611 5.51594593 8.18494072 2.5 4.8125 C0 2 0 2 0 0 Z " fill="#010201" transform="translate(265,194)"/>
<path d="M0 0 C4.29 0 8.58 0 13 0 C13.09287163 13.89141567 13.16385229 27.7827569 13.20724869 41.67442036 C13.2280817 48.12558813 13.25632143 54.57654276 13.30175781 61.02758789 C13.34536778 67.2586443 13.36916932 73.48949628 13.37950897 79.72069359 C13.38687312 82.09243167 13.40125336 84.46415916 13.42292023 86.83580971 C13.45215489 90.16983437 13.45594754 93.50302503 13.45410156 96.8371582 C13.47567322 98.29265579 13.47567322 98.29265579 13.49768066 99.77755737 C13.43947742 109.55650235 10.76593643 118.12175045 3.93359375 125.27734375 C-3.21753287 131.64834747 -9.36438009 133.37357922 -18.828125 133.28125 C-25.24388591 132.7123648 -31.80330917 130.15041368 -36.61328125 125.75390625 C-39.97260939 121.50506587 -44.15245727 115.34233238 -43.8984375 109.7734375 C-42.71178969 107.43109792 -41.53855298 106.81722675 -39.1875 105.6875 C-38.50042969 105.34074219 -37.81335938 104.99398437 -37.10546875 104.63671875 C-34.58281259 103.87383757 -33.3930219 103.8978833 -31 105 C-30.09375 106.70703125 -30.09375 106.70703125 -29.5 108.8125 C-27.96034639 113.43973854 -26.02848763 115.78290742 -21.8125 118.3125 C-17.14516699 119.45340363 -12.41623542 119.37193028 -8.15625 116.953125 C-3.02788184 112.88059735 -1.84060487 109.26988099 -1 103 C-0.83727708 99.62175474 -0.81534944 96.24551924 -0.79467773 92.86376953 C-0.78477814 91.8582756 -0.77487854 90.85278168 -0.76467896 89.81681824 C-0.73318445 86.50550664 -0.70835425 83.19418072 -0.68359375 79.8828125 C-0.66301382 77.58209874 -0.64201707 75.28138868 -0.62062073 72.98068237 C-0.56550743 66.93419389 -0.51605085 60.8876719 -0.46777344 54.84112549 C-0.41747989 48.66749093 -0.36183486 42.49390485 -0.30664062 36.3203125 C-0.19919047 24.21358312 -0.09771642 12.10681158 0 0 Z " fill="#010101" transform="translate(177,194)"/>
<path d="M0 0 C3.64814802 1.45925921 6.31268479 2.69359783 9.52734375 4.765625 C10.39214355 5.31976074 11.25694336 5.87389648 12.14794922 6.44482422 C13.06850098 7.04053223 13.98905273 7.63624023 14.9375 8.25 C16.89705354 9.50794005 18.85669161 10.76574844 20.81640625 12.0234375 C21.82719238 12.6740918 22.83797852 13.32474609 23.87939453 13.99511719 C29.03322605 17.30627854 34.20484 20.58941792 39.375 23.875 C41.23706257 25.05976477 43.09904953 26.24464837 44.9609375 27.4296875 C45.74259277 27.92710449 46.52424805 28.42452148 47.32958984 28.93701172 C47.8808252 29.28779785 48.43206055 29.63858398 49 30 C47.88164898 33.35505307 47.49251461 33.6067969 44.625 35.35546875 C43.89869385 35.80559326 43.1723877 36.25571777 42.42407227 36.71948242 C41.62412842 37.20392822 40.82418457 37.68837402 40 38.1875 C38.27913145 39.24867711 36.55912583 40.31125447 34.83984375 41.375 C33.90769043 41.94992187 32.97553711 42.52484375 32.01513672 43.1171875 C28.76060821 45.14948903 25.53512659 47.22422013 22.31640625 49.3125 C21.47449234 49.85744865 21.47449234 49.85744865 20.61557007 50.41340637 C17.83349456 52.21422233 15.05437782 54.01920766 12.27929688 55.83081055 C11.26029297 56.48863525 10.24128906 57.14645996 9.19140625 57.82421875 C7.83317749 58.70726685 7.83317749 58.70726685 6.44750977 59.6081543 C4 61 4 61 0 62 C0 41.54 0 21.08 0 0 Z " fill="#010101" transform="translate(282,228)"/>
<path d="M0 0 C0 10.89 0 21.78 0 33 C-1.65 33 -3.3 33 -5 33 C-5.0740719 28.62178091 -5.12856375 24.24389218 -5.16479492 19.86523438 C-5.179896 18.37526091 -5.20037858 16.88533199 -5.22631836 15.39550781 C-5.26264584 13.2557477 -5.27971221 11.11657434 -5.29296875 8.9765625 C-5.3086792 7.68830566 -5.32438965 6.40004883 -5.34057617 5.07275391 C-5.22818604 4.05874512 -5.1157959 3.04473633 -5 2 C-2 0 -2 0 0 0 Z " fill="#010101" transform="translate(326,271)"/>
<path d="M0 0 C0 3.96 0 7.92 0 12 C-1.65 12 -3.3 12 -5 12 C-5.08090971 10.37581255 -5.13914995 8.75048255 -5.1875 7.125 C-5.22230469 6.22007812 -5.25710938 5.31515625 -5.29296875 4.3828125 C-5.19628906 3.59648437 -5.09960938 2.81015625 -5 2 C-2 0 -2 0 0 0 Z " fill="#010101" transform="translate(320,275)"/>
</svg>
