<?xml version="1.0" encoding="UTF-8"?>
<svg version="1.1" xmlns="http://www.w3.org/2000/svg" width="256" height="256">
<path d="M0 0 C22.36708744 18.88061098 37.0589433 46.30204866 39.83251953 75.546875 C41.96142418 108.71459232 32.02551587 138.09015848 10.37939453 163.23486328 C-8.45209872 184.38795889 -36.57204488 197.90400518 -64.79199219 199.71533203 C-97.82644956 201.11892942 -126.78815324 190.62937298 -151.45263672 168.671875 C-172.42717298 149.18435186 -185.2408876 120.69498123 -186.45263672 92.17578125 C-187.25050135 59.51462259 -176.08326677 30.63896484 -153.86230469 6.72241211 C-112.53594522 -35.83996723 -44.88810178 -36.86870266 0 0 Z " fill="#121928" transform="translate(201.16748046875,41.453125)"/>
<path d="M0 0 C38.34020619 0 38.34020619 0 45.20703125 5.89453125 C51.26479531 13.13142213 53.69799255 19.08152354 53.48828125 28.62890625 C52.69605176 34.09845864 50.42849229 38.68293058 47 43 C44.796875 44.30078125 44.796875 44.30078125 43 45 C43 45.66 43 46.32 43 47 C43.556875 47.20625 44.11375 47.4125 44.6875 47.625 C49.16297376 50.2860925 52.62416543 54.90208734 54.48828125 59.76171875 C56.43524091 68.27780948 55.82812519 76.3868062 51.421875 83.94921875 C47.30058206 89.89339126 42.05982133 94.23504467 35 96 C23.45 96 11.9 96 0 96 C0 64.32 0 32.64 0 0 Z " fill="#EDEDEE" transform="translate(86,79)"/>
<path d="M0 0 C6.49196796 -0.10217095 12.98372542 -0.17178598 19.47631836 -0.21972656 C21.68082426 -0.23973086 23.88527786 -0.26694322 26.08959961 -0.30175781 C29.27470883 -0.35077058 32.45911116 -0.37308127 35.64453125 -0.390625 C36.61582474 -0.41127014 37.58711823 -0.43191528 38.58784485 -0.45318604 C50.58111322 -0.45704018 60.0750403 4.17203838 69 12 C78.70734271 21.82310319 83.17474966 33.47040687 83.25 47.0625 C83.270625 47.96677734 83.29125 48.87105469 83.3125 49.80273438 C83.3668475 59.30675372 81.11143038 67.29455171 75.8125 75.1875 C75.41522705 75.78626953 75.0179541 76.38503906 74.60864258 77.00195312 C68.38034349 86.1018938 59.4381897 93.12115903 48.45507812 95.56665039 C43.88407801 96.13996336 39.39093837 96.12315506 34.7890625 96.09765625 C33.82092621 96.0962413 32.85278992 96.09482635 31.85531616 96.09336853 C28.77851201 96.08779365 25.70178197 96.07524577 22.625 96.0625 C20.53255314 96.05748175 18.44010513 96.05291941 16.34765625 96.04882812 C11.2317425 96.03783245 6.11588379 96.02058515 1 96 C2.13340078 93.6128373 3.16788523 91.79853773 4.875 89.75 C7.47315604 86.38768042 9.21011567 82.83682651 11 79 C11.33 79 11.66 79 12 79 C12 81.97 12 84.94 12 88 C39.14549917 88.46198643 39.14549917 88.46198643 62.5859375 76.5234375 C68.34350368 69.99819583 71.5843125 62.49412501 73 54 C66.07 54 59.14 54 52 54 C52 54.66 52 55.32 52 56 C51.34 56 50.68 56 50 56 C50.875 52.125 50.875 52.125 52 51 C53.63472882 50.91299658 55.27314055 50.89298937 56.91015625 50.90234375 C58.39418945 50.90717773 58.39418945 50.90717773 59.90820312 50.91210938 C60.94912109 50.92048828 61.99003906 50.92886719 63.0625 50.9375 C64.62967773 50.94426758 64.62967773 50.94426758 66.22851562 50.95117188 C68.8190666 50.96300087 71.40950559 50.97948311 74 51 C72.88092101 37.53764683 70.55318964 26.43900826 60 17 C57.11400327 15.0512084 54.16661671 13.44344013 51 12 C50.29286865 11.65775391 49.5857373 11.31550781 48.85717773 10.96289062 C45.2537418 9.74850531 41.83601768 9.64646571 38.07421875 9.5859375 C37.32662796 9.56657135 36.57903717 9.5472052 35.80879211 9.5272522 C33.43514194 9.46776082 31.06144246 9.42119408 28.6875 9.375 C27.07224518 9.33679211 25.45701013 9.29773875 23.84179688 9.2578125 C19.8946929 9.1620847 15.94749361 9.07794233 12 9 C12 11.31 12 13.62 12 16 C9 15 9 15 8.0078125 13.36328125 C7.57082031 12.34814453 7.57082031 12.34814453 7.125 11.3125 C5.24723606 7.26584593 2.93407993 4.34159103 0 1 C0 0.67 0 0.34 0 0 Z " fill="#F7F7F7" transform="translate(136,79)"/>
<path d="M0 0 C2.97 0 5.94 0 9 0 C9.09291115 10.40557484 9.1638719 20.81105008 9.20724869 31.21695614 C9.22807336 36.04949086 9.25629691 40.88174059 9.30175781 45.71411133 C9.34539891 50.38255658 9.36917558 55.05072867 9.37950897 59.71936226 C9.38686768 61.49547179 9.40123728 63.27156732 9.42292023 65.04755974 C9.5468926 75.62800135 9.58377252 84.30125578 2.6875 92.875 C-2.99293725 97.36650852 -7.97249288 98.6880374 -15.1484375 98.48046875 C-21.59487096 97.39428887 -26.39563075 93.83356486 -30.625 89 C-32.12670769 85.72354686 -32.33926347 83.56226641 -32 80 C-26.25 77 -26.25 77 -24 77 C-23.84144531 77.62648438 -23.68289062 78.25296875 -23.51953125 78.8984375 C-22.22709114 83.92686894 -22.22709114 83.92686894 -18.8125 87.5625 C-11.69177692 88.71293773 -11.69177692 88.71293773 -5.125 86.25 C-0.97044745 81.85106201 -0.69852419 78.10225943 -0.68115234 72.20214844 C-0.67110672 71.42127869 -0.6610611 70.64040894 -0.65071106 69.83587646 C-0.61987355 67.26038331 -0.60284244 64.68499415 -0.5859375 62.109375 C-0.5672263 60.32146306 -0.54765292 58.53355996 -0.5272522 56.7456665 C-0.4759199 52.0439576 -0.43630004 47.34222006 -0.39910889 42.64038086 C-0.35907614 37.84091095 -0.30798046 33.04156027 -0.2578125 28.2421875 C-0.16104021 18.82820874 -0.07663956 9.41416268 0 0 Z " fill="#F9F9F9" transform="translate(69,79)"/>
<path d="M0 0 C1.98 0 3.96 0 6 0 C6 4.29 6 8.58 6 13 C6.99 13 7.98 13 9 13 C9 8.71 9 4.42 9 0 C9.66 0 10.32 0 11 0 C11 6.93 11 13.86 11 21 C11.99 21 12.98 21 14 21 C14 14.07 14 7.14 14 0 C23.55977854 -0.83648062 23.55977854 -0.83648062 27.44140625 1.41796875 C31.52313574 4.94344044 34.52464882 8.05647923 35.40625 13.515625 C35.62509597 19.89863231 34.73497931 23.55015187 30.703125 28.5390625 C29 30 29 30 25 31 C25 26.05 25 21.1 25 16 C24.01 16 23.02 16 22 16 C22 21.28 22 26.56 22 32 C21.34 32 20.68 32 20 32 C20 30.68 20 29.36 20 28 C19.01 28 18.02 28 17 28 C17 29.65 17 31.3 17 33 C11.39 33 5.78 33 0 33 C0 22.11 0 11.22 0 0 Z " fill="#161D2B" transform="translate(95,88)"/>
<path d="M0 0 C3.93726105 1.96863052 7.48082384 3.83973626 11.15234375 6.1796875 C12.56483398 7.07880859 12.56483398 7.07880859 14.00585938 7.99609375 C14.97330078 8.61613281 15.94074219 9.23617187 16.9375 9.875 C17.90107422 10.48730469 18.86464844 11.09960938 19.85742188 11.73046875 C25.01146163 15.020881 30.06471143 18.38948291 35 22 C30.44498917 27.1623456 24.8783761 30.45673329 19.0625 34.0625 C17.11557603 35.28205831 15.16895303 36.50209725 13.22265625 37.72265625 C12.31402832 38.28871582 11.40540039 38.85477539 10.46923828 39.43798828 C8.42542075 40.73088373 6.42379804 42.06068499 4.43359375 43.43359375 C2 45 2 45 0 45 C0 30.15 0 15.3 0 0 Z " fill="#F8F9F9" transform="translate(148,104)"/>
<path d="M0 0 C5.94 0 11.88 0 18 0 C18 11.88 18 23.76 18 36 C17.01 36 16.02 36 15 36 C15 25.77 15 15.54 15 5 C14.01 5 13.02 5 12 5 C12 15.23 12 25.46 12 36 C11.34 36 10.68 36 10 36 C10 27.75 10 19.5 10 11 C9.01 11 8.02 11 7 11 C7 19.25 7 27.5 7 36 C6.01 36 5.02 36 4 36 C4 34.35 4 32.7 4 31 C3.34 31 2.68 31 2 31 C2 32.65 2 34.3 2 36 C1.34 36 0.68 36 0 36 C0 24.12 0 12.24 0 0 Z " fill="#141B29" transform="translate(94,130)"/>
<path d="M0 0 C9.3960396 4.6980198 9.3960396 4.6980198 11.37109375 8.81640625 C12.96280228 14.34289734 13.19270052 20.218452 10.90625 25.55078125 C9.71019293 27.50828162 8.53145426 29.29280509 7 31 C6.67 31 6.34 31 6 31 C6 28.69 6 26.38 6 24 C5.01 24 4.02 24 3 24 C3 27.3 3 30.6 3 34 C2.01 34 1.02 34 0 34 C0 22.78 0 11.56 0 0 Z " fill="#1F2533" transform="translate(120,131)"/>
<path d="M0 0 C5.94 0 11.88 0 18 0 C18 11.88 18 23.76 18 36 C17.01 36 16.02 36 15 36 C15 25.77 15 15.54 15 5 C14.01 4.67 13.02 4.34 12 4 C12.33 3.34 12.66 2.68 13 2 C9.04 1.67 5.08 1.34 1 1 C1.33 12.55 1.66 24.1 2 36 C1.34 36 0.68 36 0 36 C0 24.12 0 12.24 0 0 Z " fill="#454B57" transform="translate(94,130)"/>
<path d="M0 0 C0.33 0 0.66 0 1 0 C1 7.92 1 15.84 1 24 C-0.32 24 -1.64 24 -3 24 C-3 19.71 -3 15.42 -3 11 C-3.99 11 -4.98 11 -6 11 C-6.3125 7.6875 -6.3125 7.6875 -6 4 C-3.5625 2.125 -3.5625 2.125 -1 1 C-0.67 0.67 -0.34 0.34 0 0 Z " fill="#CCCED1" transform="translate(179,136)"/>
<path d="M0 0 C0.91644287 0.00523682 1.83288574 0.01047363 2.77709961 0.01586914 C3.76645508 0.0190918 4.75581055 0.02231445 5.77514648 0.02563477 C6.81606445 0.03401367 7.85698242 0.04239258 8.92944336 0.05102539 C10.49662109 0.05779297 10.49662109 0.05779297 12.09545898 0.06469727 C14.68600996 0.07652627 17.27644895 0.0930085 19.86694336 0.11352539 C19.86694336 2.42352539 19.86694336 4.73352539 19.86694336 7.11352539 C19.53694336 5.79352539 19.20694336 4.47352539 18.86694336 3.11352539 C11.93694336 3.11352539 5.00694336 3.11352539 -2.13305664 3.11352539 C-2.13305664 3.77352539 -2.13305664 4.43352539 -2.13305664 5.11352539 C-2.79305664 5.11352539 -3.45305664 5.11352539 -4.13305664 5.11352539 C-3.01461887 0.16044383 -3.01461887 0.16044383 0 0 Z " fill="#D1D2D5" transform="translate(190.133056640625,129.886474609375)"/>
<path d="M0 0 C0.66 0 1.32 0 2 0 C3.32719886 6.96779403 3.08825381 13.92988911 3 21 C2.67 21 2.34 21 2 21 C2 16.71 2 12.42 2 8 C1.01 8 0.02 8 -1 8 C-1.04241723 5.66705225 -1.04092937 3.33297433 -1 1 C-0.67 0.67 -0.34 0.34 0 0 Z " fill="#767A82" transform="translate(174,139)"/>
<path d="M0 0 C3.3 0 6.6 0 10 0 C6.23312136 1.88343932 4.97041037 2.22057835 1 2 C1 2.66 1 3.32 1 4 C0.34 4 -0.32 4 -1 4 C-0.67 2.68 -0.34 1.36 0 0 Z " fill="#F9F9FA" transform="translate(187,131)"/>
</svg>
